<svg xmlns="http://www.w3.org/2000/svg" width="370" height="302" viewBox="0 0 370 302">
    <g fill="none" fill-rule="evenodd">
        <g fill-rule="nonzero">
            <g transform="translate(-535 -1049) translate(535 1049)">
                <path fill="#000" d="M284.19 100.14c-4.312 0-8.814-3.323-13.47-9.814-.076-.114-.076-.305.077-.382.114-.076.305-.076.382.077 4.693 6.567 9.195 9.813 13.43 9.584 3.435-.191 5.8-2.52 8.319-5.002 2.518-2.482 5.113-5.04 8.89-5.231 4.197-.191 8.547 2.596 12.935 8.362.115.114.077.305-.038.42-.114.114-.305.076-.42-.038-4.273-5.575-8.47-8.324-12.439-8.133-3.548.19-6.067 2.672-8.509 5.04-2.48 2.444-5.036 4.964-8.7 5.155-.152-.039-.304-.039-.457-.039zM31.06 24.88c-3.55 0-7.288-2.71-11.104-8.094-.076-.115-.076-.306.076-.382.115-.076.305-.076.382.076 3.854 5.384 7.555 8.019 10.989 7.866 2.823-.153 4.77-2.062 6.792-4.086 2.06-2.023 4.197-4.162 7.326-4.314 3.472-.153 7.059 2.138 10.684 6.873.114.114.076.305-.039.42-.114.114-.305.076-.42-.039-3.51-4.581-6.906-6.834-10.187-6.643-2.9.152-4.884 2.1-6.945 4.123-2.022 1.948-4.159 4.01-7.173 4.162-.114.039-.229.039-.382.039z"/>
                <path fill="#016DF0" d="M0 218.24L12.515 230.764 25.031 218.24 12.515 205.716zM179.717 67.57c-.152 0-.267-.115-.267-.23l-1.64-10.768c-.039-.152.076-.305.228-.343l10.76-1.642c.153-.038.306.076.344.23l1.64 10.767c.039.152-.076.305-.228.343l-10.76 1.642h-.077z"/>
                <path d="M178.42 56.763L179.984 66.958 190.172 65.393 188.608 55.198z"/>
                <path fill="#000" d="M318.264 23.544c-.077 0-.191-.038-.23-.114l-5.112-7.713c-.077-.115-.038-.306.076-.382.115-.077.305-.038.382.076l5.113 7.713c.076.115.038.306-.077.382-.076.038-.114.038-.152.038zM158.083 127.058c-.077 0-.153-.038-.23-.114-.114-.115-.076-.306.039-.42l6.982-6.071c.115-.115.306-.077.42.038.115.114.076.305-.038.42l-6.983 6.071c-.038.038-.114.076-.19.076zM308.725 287.733c-.077 0-.191-.038-.23-.115l-5.418-7.484c-.076-.114-.076-.305.077-.382.114-.076.305-.076.381.077l5.419 7.484c.076.114.076.305-.077.382 0 .038-.076.038-.152.038zM19.803 127.364c-.076 0-.152-.038-.19-.077l-6.335-6.72c-.114-.114-.114-.305 0-.42.115-.114.306-.114.42 0l6.334 6.72c.115.115.115.306 0 .42-.076.077-.152.077-.229.077zM53.228 249.091c-.076 0-.114 0-.152-.038-.115-.076-.153-.267-.077-.382l5.495-7.445c.076-.115.267-.153.382-.077.114.077.152.268.076.382l-5.495 7.446c-.038.076-.114.114-.229.114zM361.724 175.207c-.076 0-.153-.038-.229-.114-.114-.115-.076-.306.038-.42l7.288-5.728c.115-.114.305-.076.42.038.114.115.076.306-.038.42l-7.288 5.728c-.077.076-.153.076-.191.076z"/>
                <ellipse cx="329.787" cy="139.582" fill="#016DF0" rx="6.296" ry="6.3"/>
                <ellipse cx="198.376" cy="12.395" fill="#016DF0" rx="3.777" ry="3.78"/>
                <ellipse cx="57.082" cy="170.32" fill="#016DF0" rx="5.342" ry="5.346"/>
                <ellipse cx="344.401" cy="45.843" fill="#016DF0" rx="2.671" ry="2.673"/>
                <ellipse cx="26.671" cy="269.328" fill="#016DF0" rx="2.671" ry="2.673"/>
                <path fill="#016DF0" d="M351.803 106.478c-.076 0-.114-.038-.19-.077l-12.516-9.889c-.076-.038-.114-.115-.114-.191s0-.153.076-.23l9.883-12.523c.114-.115.267-.153.42-.038l12.515 9.89c.076.037.114.114.114.19s0 .153-.076.23l-9.883 12.523c-.038.077-.114.115-.229.115z"/>
                <path d="M339.708 96.283L351.765 105.829 361.304 93.763 349.247 84.217z"/>
                <g>
                    <path fill="#762AE2" d="M5.111.535C6.6 2.443 8.125 4.352 9.612 6.26H.572C2.098 4.352 3.586 2.443 5.112.535z" transform="translate(232.274 234.804)"/>
                    <path fill="#016DF0" d="M.61 6.567c-.114 0-.19-.076-.267-.153-.076-.076-.038-.229.038-.305C1.831 4.238 3.357 2.29 4.883.344c.038-.077.152-.115.228-.115.077 0 .153.038.23.115 1.487 1.909 3.013 3.818 4.5 5.727.077.076.077.19.039.305-.039.115-.153.153-.268.153-2.975.038-5.988.038-9.002.038zM5.111.993c-1.335 1.68-2.67 3.36-3.929 5.001H9.04C7.743 4.314 6.446 2.673 5.111.993z" transform="translate(232.274 234.804)"/>
                </g>
                <g>
                    <path fill="#016DF0" d="M11.901.61c1.03 3.895 4.044 15.349 7.019 26.688-6.18 0-12.397 0-18.577-.038h1.984H.343c.992-2.252 1.984-4.467 2.976-6.72C6.218 13.822 9.079 7.179 11.9.61z" transform="translate(301.316 213.805)"/>
                    <path fill="#000" d="M18.882 27.566L.305 27.527c-.152 0-.267-.114-.267-.305 0-.038 0-.076.038-.115.992-2.252 1.984-4.467 2.976-6.72C5.874 13.937 8.773 7.217 11.634.459c.038-.114.153-.19.267-.19.115 0 .229.076.267.228.992 3.742 3.891 14.7 7.019 26.688.038.076 0 .19-.038.229-.077.114-.153.153-.267.153zm-16.479-.573h16.135C15.64 15.92 12.97 5.765 11.825 1.45 9.04 7.94 6.255 14.394 3.547 20.617c-.915 2.138-1.869 4.238-2.784 6.338h1.564c.038.038.038.038.076.038z" transform="translate(301.316 213.805)"/>
                </g>
                <path fill="#52A0FF" d="M356.512 238.393c-13.656-35.774-29.334-60.018-43.218-76.665 0 .268-.038.573-.077.84-.228 1.68-.762 2.902-1.03 3.437-.038.038-.038.076-.076.152.077.038.153.115.191.191.954.878 1.488 3.13.153 4.62-1.145 1.26-3.09 1.336-4.196.573-.306-.23-.534-.497-.687-.726l-1.755 6.109c.42.19.84.382 1.26.61 9.078 4.773 15.219 15.12 18.995 25.505 4.082 11.186 6.98 18.288 11.596 32.796.572 1.833 1.145 3.589 1.717 5.307 5.989 0 11.138.038 15.258.038 1.411 0 2.365-1.45 1.869-2.787zm-53.098-87.622c-.19-.191-.343-.382-.534-.573-20.789-21.228-38.183-29.016-47.07-54.635-3.739-10.728-4.997-21.877-4.807-32.605h-30.63c.19 10.728-1.068 21.877-4.806 32.605-8.888 25.619-26.282 33.407-47.07 54.635-11.559 11.836-25.444 29.093-38.756 54.826.381 12.027.725 24.091 1.106 36.118 15.373 0 39.709-.038 67.02-.077 5.646-6.452 11.291-12.828 15.144-16.913 8.24-8.743 13.313-13.554 16.707-16.15-3.204-1.642-6.446-3.245-9.65-4.887l1.03-2.978c-1.03-.534-17.318-9.087-19.95-11.492-.42-.382-1.526-1.374-1.335-2.443.076-.42.267-.955.725-1.26.648-.459 1.564-.23 2.365.076-.191-.076-.382-.153-.572-.267-.535-.382-1.221-.993-1.64-1.91-.23-.42-.42-.877-.382-1.488 0-.191.076-.878.572-1.298 0 0 .458-.42 1.335-.459.305 0 1.335.306 1.335.306s-1.487-1.718-1.755-2.253c-.381-.763-.42-1.183-.381-1.489 0-.19.076-.878.572-1.298 0 0 .458-.42 1.335-.458.954-.038 3.777 1.298 7.591 3.474-.572-.572-3.853-3.665-4.272-4.428-.382-.688-.343-1.375-.343-1.375 0-.19.038-.687.381-1.069.381-.42.916-.534 1.106-.573 1.526-.229 3.853 1.718 4.768 2.482 1.145.955 2.9 2.329 5.188 3.894-.19-1.183 0-2.176.84-2.634 2.822-1.489 7.895 10.652 7.895 10.652 10.719 5.918 21.438 11.874 32.156 17.792 8.087-14.852 18.653-24.55 27.083-27.108 3.7-1.107 7.133-1.336 9.231-1.336l1.259-2.94c-3.014-2.749-1.907-9.24-1.678-10.805.152-1.069.42-1.832.61-2.252.305-.84 1.297-3.398 3.852-5.307.687-.497 2.404-1.795 4.578-2.1-.076.038-.115.038-.153 0z"/>
                <path fill="#000" d="M354.605 241.447c-4.12 0-9.27-.038-15.258-.038-.115 0-.23-.076-.267-.19l-.306-.917c-.457-1.413-.915-2.902-1.41-4.39-3.51-11.035-5.99-17.678-8.812-25.314-.878-2.367-1.793-4.81-2.747-7.483-3.166-8.705-9.04-20.197-18.843-25.351-.382-.191-.801-.382-1.22-.611-.115-.076-.192-.19-.153-.344l1.754-6.108c.038-.115.115-.191.229-.191s.229.038.267.114c.153.268.382.458.61.65.954.687 2.785.648 3.815-.497 1.22-1.336.725-3.398-.115-4.2-.076-.038-.114-.114-.19-.152-.115-.077-.153-.23-.077-.382l.077-.153c.114-.23.724-1.45.991-3.322.039-.267.077-.534.077-.801 0-.115.076-.23.229-.268.114-.038.228 0 .305.115 17.089 20.464 31.622 46.273 43.256 76.74.267.726.19 1.528-.267 2.177-.458.534-1.183.916-1.945.916zm-15.03-.61c5.913 0 10.986.038 15.03.038.572 0 1.106-.268 1.45-.764.342-.496.419-1.069.19-1.642-11.52-30.123-25.9-55.704-42.76-76.053 0 .038 0 .114-.039.152-.267 1.833-.839 3.093-.991 3.437l.038.038c1.03.992 1.602 3.398.152 5.001-1.258 1.375-3.395 1.451-4.577.611-.153-.114-.267-.19-.382-.343l-1.525 5.345c.381.19.724.343 1.03.534 9.994 5.23 15.906 16.837 19.148 25.657.992 2.672 1.87 5.116 2.747 7.483 2.86 7.674 5.302 14.28 8.85 25.351.495 1.49.953 2.978 1.41 4.39l.23.764zm-208.995.343l-1.106-36.118c0-.038 0-.114.038-.153 11.1-21.456 24.184-39.897 38.832-54.902 6.103-6.223 11.786-11.224 17.317-16.035 13.084-11.454 23.421-20.464 29.677-38.485 3.395-9.774 4.997-20.693 4.768-32.49 0-.077.038-.154.076-.192.038-.038.115-.076.191-.076h30.63c.077 0 .153.038.191.076.038.038.076.115.076.191-.19 11.798 1.412 22.755 4.768 32.491 6.256 18.02 16.593 27.07 29.677 38.485 5.493 4.81 11.215 9.774 17.318 16.035.19.191.343.382.534.535l.076.076c.076.077.115.191.076.306-.038.114-.114.19-.228.19-2.137.306-3.815 1.566-4.463 2.062-1.679 1.26-2.938 3.016-3.739 5.154-.152.459-.42 1.184-.572 2.177v.076c-1.068 6.529.267 9.316 1.602 10.5.077.076.115.229.077.305l-1.26 2.94c-.037.114-.152.19-.266.19-2.174 0-5.57.268-9.155 1.337-9.002 2.749-19.34 13.057-26.93 26.955-.038.076-.115.114-.153.152-.076.039-.152 0-.229-.038l-32.156-17.792c-.038-.038-.114-.076-.114-.152-.038-.077-4.005-9.545-6.752-10.538-.305-.114-.534-.114-.763.038-.61.344-.839 1.108-.686 2.33 0 .114-.038.228-.115.267-.114.076-.229.076-.305 0-1.83-1.26-3.585-2.597-5.188-3.933l-.076-.076c-.915-.764-3.128-2.558-4.463-2.367-.19.038-.648.114-.953.458-.267.305-.306.725-.306.916 0 0-.038.611.306 1.222.343.61 2.708 2.901 3.738 3.894.229.23.42.382.496.496.076.077.114.191.076.306-.076.153-.267.229-.42.153-3.776-2.138-6.522-3.437-7.4-3.437h-.038c-.763 0-1.144.344-1.182.382-.267.268-.42.611-.458 1.107 0 .268 0 .65.343 1.337.19.42 1.297 1.718 1.717 2.176.076.115.114.23.038.344-.076.114-.19.152-.343.114-.42-.114-1.068-.305-1.26-.305-.762 0-1.144.343-1.144.382-.267.267-.42.61-.457 1.107-.038.534.152.916.343 1.336.343.687.877 1.298 1.526 1.794l.534.23c.152.076.19.229.152.381-.076.153-.228.23-.381.153-.954-.382-1.64-.42-2.098-.115-.305.191-.496.573-.61 1.07-.153.916.839 1.794 1.258 2.176 2.632 2.405 19.187 11.072 19.874 11.415.114.077.19.23.152.344l-.953 2.71.267.154c3.051 1.527 6.103 3.092 9.155 4.62.076.037.152.114.152.228 0 .115-.038.191-.114.268-3.7 2.863-9.002 7.98-16.67 16.111-3.318 3.513-8.391 9.202-15.143 16.876-.038.076-.114.114-.229.114-27.197.191-51.533.23-66.906.23-.152 0-.267-.115-.267-.268zm-.534-36.08l1.068 35.775c15.373 0 39.518-.039 66.64-.077 6.713-7.636 11.748-13.286 15.066-16.799 7.439-7.903 12.664-12.98 16.364-15.92-2.899-1.49-5.836-2.94-8.773-4.43l-.496-.267c-.114-.076-.19-.229-.152-.343l.953-2.75c-2.555-1.336-17.241-9.086-19.797-11.415-.496-.458-1.64-1.489-1.45-2.71.153-.688.42-1.146.84-1.451.305-.191.648-.306 1.068-.306-.42-.42-.763-.916-1.03-1.413-.229-.496-.458-.992-.42-1.641.039-.65.267-1.146.649-1.49.038-.037.572-.496 1.526-.534.114 0 .305.038.496.077-.458-.535-1.03-1.26-1.183-1.604-.42-.84-.42-1.298-.42-1.642.039-.649.267-1.145.649-1.527.038-.038.572-.496 1.526-.534h.038c1.03 0 3.471 1.183 5.836 2.443-1.373-1.336-2.518-2.52-2.785-3.016-.42-.764-.381-1.49-.381-1.527 0-.23.038-.764.458-1.222.457-.535 1.068-.61 1.297-.65 1.602-.266 3.852 1.604 4.92 2.483l.077.076c1.45 1.184 3.013 2.405 4.653 3.55-.038-1.145.305-1.908 1.03-2.29.382-.191.763-.191 1.22-.038 2.862 1.03 6.6 9.697 7.02 10.766l31.812 17.601c7.63-13.897 18.005-24.244 27.121-26.993 3.586-1.069 6.904-1.336 9.117-1.374l1.106-2.596c-1.945-1.91-2.48-5.575-1.602-10.882v-.076c.153-1.069.42-1.833.61-2.29.84-2.292 2.174-4.086 3.93-5.422.61-.458 2.173-1.604 4.157-2.062l-.229-.23c-6.103-6.222-11.787-11.186-17.28-15.996-13.16-11.492-23.535-20.579-29.829-38.752-3.395-9.736-4.997-20.656-4.806-32.415h-30.058c.19 11.76-1.45 22.679-4.806 32.415-6.294 18.173-16.708 27.26-29.83 38.752-5.492 4.81-11.176 9.774-17.28 15.997-14.57 15.004-27.578 33.369-38.64 54.75z"/>
                <path fill="#000" d="M303.49 151.153c-.076 0-.114-.038-.19-.077l-.19-.19c-.115-.115-.192-.23-.306-.306l-.153-.153c-6.103-6.223-11.786-11.186-17.28-15.997-13.16-11.492-23.535-20.579-29.867-38.752-3.395-9.812-5.035-20.846-4.806-32.72 0-.153.115-.267.305-.267.153 0 .267.114.267.305-.19 11.798 1.412 22.755 4.768 32.491 6.256 18.02 16.593 27.07 29.677 38.523 5.493 4.81 11.215 9.774 17.318 16.036l.152.152.306.306.152.152c.115.115.115.268.038.42 0 .039-.076.077-.19.077z"/>
                <path fill="#000" d="M220.373 63.263c-.153 0-.267-.114-.305-.267-.115-6.948-.877-14.355-2.25-21.991-.878-4.925-2.06-10.003-3.472-15.196-.19-.725-.038-1.45.382-2.023.457-.573 1.106-.916 1.83-.916h38.183c.725 0 1.412.343 1.831.916.458.573.573 1.336.382 2.023-1.411 5.155-2.556 10.27-3.471 15.196-1.374 7.636-2.136 15.043-2.25 21.991 0 .153-.153.267-.306.267s-.267-.114-.267-.305c.114-6.987.877-14.394 2.289-22.068.877-4.925 2.06-10.04 3.47-15.233.153-.535.039-1.108-.304-1.528-.344-.42-.84-.687-1.374-.687h-38.144c-.534 0-1.068.267-1.374.687-.343.42-.457.993-.305 1.528 1.412 5.192 2.594 10.308 3.471 15.233 1.374 7.674 2.137 15.081 2.29 22.068 0 .19-.153.305-.306.305zM130.847 241.142H116.81c-1.411 0-2.403-1.413-1.907-2.787 4.768-12.485 9.765-23.519 14.876-33.37.343 12.104.687 24.13 1.068 36.157zM109.18 88.386c-.075 0-.152-.039-.19-.077-.114-.114-.114-.305 0-.42l50.16-53.642c.802-.878.84-2.214.077-3.093l-25.748-29.78c-.42-.496-1.068-.801-1.716-.801-.649 0-1.297.267-1.717.725l-56.302 60.21c-.114.114-.305.114-.42 0-.114-.115-.114-.306 0-.42L129.589.915c.534-.572 1.297-.916 2.098-.916h.038c.802 0 1.603.382 2.137.993l25.747 29.78c.954 1.107.954 2.787-.076 3.856l-50.122 53.68c-.077.077-.153.077-.23.077z"/>
                <g>
                    <path fill="#762AE2" d="M.496 2.596C1.144 1.91 1.755 1.222 2.403.535c.343 1.26.763 2.672 1.259 4.161.076.267.152.496.19.764C2.786 3.856 1.527 2.825.497 2.596z" transform="translate(63.674 68.723)"/>
                    <path fill="#000" d="M3.89 5.803c-.076 0-.19-.038-.228-.114C2.67 4.199 1.45 3.13.458 2.902.343 2.863.267 2.787.267 2.71c0-.077 0-.191.076-.268.649-.687 1.26-1.374 1.908-2.061.076-.077.19-.115.267-.077.114.039.19.115.19.191.344 1.298.763 2.711 1.26 4.162v.038l.19.725c.038.153-.038.268-.153.344-.038 0-.076.038-.114.038zM1.03 2.482c.687.267 1.45.878 2.136 1.641-.343-1.03-.61-2.061-.877-2.978-.42.42-.84.879-1.26 1.337z" transform="translate(63.674 68.723)"/>
                </g>
                <g>
                    <path fill="#52A0FF" d="M90.746.382l-6.14 6.567-8.43 9.01-7.82 8.4-1.107 1.183c-1.564-.687-3.242-.954-4.882-.496-4.349 1.222-6.752 6.987-5.836 11.988-5.837 6.262-11.71 12.523-17.547 18.784-10.528 11.263-25.671 12.867-33.72 3.59-5.378-6.224-6.256-15.883-3.013-24.932 1.563-4.429 4.12-8.705 7.552-12.37l10.49-11.225c.114.42.343.802.572 1.146 1.564 2.214 6.18 6.414 6.714 6.872-1.297-4.773-1.946-7.178-1.946-7.178s.84 2.94 2.442 8.858c1.03.305 2.136.687 3.204 1.069 2.784 1.03 5.302 2.138 7.552 3.283.42-1.374 1.183-4.314.306-7.941-.61-2.52-1.755-4.353-2.518-5.422.954-2.52 1.831-4.848 2.594-7.025.305-.84.763-2.176.114-3.016-.038-.038-.42-.534-.991-.573-.878-.038-1.526 1.07-1.946 1.833-.725 1.26-1.83 3.284-3.051 6.147 0 0 .953-5.65 1.335-7.101.076-.344.228-.84.267-1.375h55.805V.382z" transform="translate(41.932 62.614)"/>
                    <path fill="#000" d="M18.92 65.63h-.42c-5.34-.114-10.108-2.29-13.427-6.108-5.264-6.07-6.446-15.768-3.09-25.237 1.64-4.581 4.273-8.896 7.63-12.484l10.49-11.225c.076-.077.19-.115.266-.077.115.039.191.115.191.23.076.381.305.725.496 1.03 1.22 1.757 4.387 4.735 5.95 6.147-.534-1.909-.915-3.398-1.22-4.429-.19-.649-.305-1.107-.382-1.412-.076-.23-.114-.344-.114-.382h.038c-.038-.306.038-.306.153-.344.076-.038.152 0 .229.038.038 0 .038.039.114.191h.038c0 .039.038.23.19.688.306.992.878 3.207 2.213 7.98.992.305 2.06.648 3.09 1.03 2.48.916 4.92 1.947 7.248 3.13.534-1.794.915-4.428.228-7.444-.457-1.91-1.297-3.704-2.479-5.307-.076-.077-.076-.191-.038-.268.877-2.252 1.716-4.543 2.594-7.025.267-.687.724-1.985.152-2.748 0 0-.343-.42-.763-.459-.724-.038-1.373 1.07-1.716 1.68-1.03 1.795-2.06 3.856-3.052 6.109-.038.115-.19.19-.343.153-.153-.038-.229-.191-.19-.306.037-.229.953-5.65 1.334-7.101v-.038c.077-.344.23-.802.23-1.26 0-.153.152-.267.266-.267H90.67c.115 0 .23.076.267.19.038.115.038.23-.038.306L67.402 25.733c-.076.076-.229.115-.343.076-1.603-.725-3.243-.878-4.692-.496-4.425 1.222-6.485 7.025-5.646 11.645 0 .076 0 .19-.076.229L39.098 55.97c-5.683 6.147-13.045 9.66-20.178 9.66zm1.259-54.29L9.994 22.22c-3.319 3.513-5.874 7.79-7.476 12.294-3.28 9.278-2.175 18.708 2.975 24.664 3.28 3.78 7.781 5.804 13.007 5.918 7.095.153 14.495-3.322 20.255-9.507l17.432-18.67c-1.03-5.994 2.289-11.11 6.065-12.179 1.526-.42 3.204-.267 4.883.42L90.022.65H38.717c.534.152.84.61.84.61.762.954.19 2.482-.077 3.283-.84 2.406-1.678 4.658-2.556 6.873 1.183 1.641 2.022 3.474 2.48 5.383.8 3.36.267 6.223-.344 8.094-.038.076-.076.153-.152.19-.077.04-.153.04-.23 0-2.402-1.22-4.958-2.328-7.514-3.282-1.068-.382-2.174-.764-3.204-1.07-.076-.038-.152-.114-.19-.19-.153-.535-.306-1.07-.42-1.566-.916-.802-5.226-4.772-6.752-6.91-.114-.23-.267-.458-.42-.726zM35.169.65c-.038.419-.152.8-.228 1.106v.038c-.23.84-.649 3.093-.954 4.85.687-1.49 1.411-2.864 2.136-4.124.382-.65.954-1.642 1.755-1.91H35.17v.04z" transform="translate(41.932 62.614)"/>
                </g>
                <g fill="#000">
                    <path d="M85.902 21.724l-37.42-2.978c-.19-4.238-.42-8.476-.61-12.714l15.715-.114c.344 1.183.687 2.367 1.03 3.589 1.297-.268 7.515-1.451 13.618 2.367 5.34 3.321 7.21 8.4 7.667 9.85zM33.873 27.642C22.62 22.412 11.367 17.181.076 11.95 1.373 8.018 2.708 4.085 4.043.153 9.003 1.374 14 2.596 18.958 3.818c-.153 1.794-.343 3.589-.534 5.345 1.373.23 7.553 1.413 11.825 7.178 3.51 4.734 3.624 9.66 3.624 11.301z" transform="translate(65.2 274.129)"/>
                </g>
                <path fill="#000" d="M142.138 104.841c-1.182 3.093-2.632 5.421-5.493 9.965-1.983 3.13-4.31 6.567-7.018 10.232 1.449 17.6 2.86 35.163 4.31 52.764-18.882.038-37.725.115-56.607.153 1.106-5.498 2.174-11.149 3.166-16.952 1.602-9.392 2.86-18.479 3.89-27.222-2.593-.115-6.408-.496-10.832-1.756-6.714-1.91-14.991-4.238-17.928-10.423-2.823-5.956.572-13.02 6.751-25.771 2.747-5.69 5.493-10.156 7.438-13.096 1.755.573 3.624 1.26 5.608 2.062 2.06.84 3.929 1.756 5.645 2.634 0 .038-.038.076-.038.153-1.64 5.154-7.514 16.417-10.642 24.473 4.005.802 7.438 1.336 9.994 1.68 9.269 1.26 15.181 1.222 16.63 1.222.992 0 1.832-.039 2.442-.039l-.114-3.283 14.647.458c0 .535-.038 1.07-.038 1.642v1.222c1.717-.23 3.433-.42 5.188-.65 2.555-3.245 5.226-6.948 7.781-11.148 1.564-2.52 2.937-5.001 4.196-7.369-1.754-2.558-3.7-5.192-5.836-7.903-2.48-3.169-4.997-6.07-7.4-8.705l7.896-8.59c4.348 4.123 7.781 7.75 10.26 10.423 7.02 7.712 7.82 9.774 8.164 11.568.839 4.43-.572 8.323-2.06 12.256z"/>
                <g fill="#000">
                    <g>
                        <path d="M9.574 21.113c-.114 0-.229-.076-.267-.19-.038-.153.038-.306.191-.344.267-.077.496-.191.725-.306 2.136-1.03 3.128-3.092 3.585-4.658.992-3.321.496-7.33-1.22-10.232-.458-.801-1.106-1.565-1.793-2.29-1.068-1.07-2.289-1.948-3.547-2.52-.153-.077-.191-.23-.153-.382.076-.153.229-.191.381-.153 1.297.573 2.594 1.49 3.7 2.635.725.725 1.374 1.565 1.87 2.405 1.83 3.054 2.326 7.254 1.296 10.69-.724 2.405-2.06 4.124-3.89 5.002-.267.114-.534.229-.801.305 0 .038-.039.038-.077.038z" transform="translate(96.86 87.05) translate(4.959 .764)"/>
                        <path d="M9.994 24.55c-.153 0-.267-.115-.267-.268l-.42-3.436v-.038c0-.153.115-.306.305-.306.191 0 .306.115.306.306l.42 3.398c-.039.153-.153.305-.344.343.038 0 .038 0 0 0zM.343 24.244c-.19 0-.305-.153-.267-.305l.305-5.307c0-.153.153-.268.306-.268.152 0 .267.153.267.306l-.306 5.307c0 .152-.152.267-.305.267z" transform="translate(96.86 87.05) translate(4.959 .764)"/>
                    </g>
                    <path d="M15.945 3.627c-.115 1.107-.496 2.214-1.412 2.94-.114.114-.686.534-1.907.687-3.09.42-5.073-1.68-6.408-.649-.306.23-.42.496-.534.687-.534 1.107.267 2.138.724 4.047.344 1.413.496 3.322-.038 3.513-.42.153-.763-.802-2.098-1.146-.229-.038-1.106-.267-2.06.153-.228.115-.381.23-.495.306-.039 0-.039.038-.077.038-.152-.917-.267-2.024-.267-3.322 0-.573 0-1.107.038-1.794 0 0 .191-1.795.801-3.36.23-.535 1.679-4.2 5.15-5.23 2.975-.802 6.332.42 8.583 3.13zM14.648 21.228c-.534.114-1.221.229-1.984.19-1.945-.076-3.357-.954-4.043-1.412.496.573 1.182 1.26 2.174 1.87 1.602.994 3.166 1.299 4.081 1.414l-.228-2.062z" transform="translate(96.86 87.05)"/>
                    <path d="M3.814 20.006c-.877 0-1.678-.267-2.288-.764C.306 18.212 0 16.188.839 14.737c.153-.229.954-1.489 2.518-1.641 1.182-.115 2.098.458 2.441.725.114.115.153.267.038.42-.114.114-.267.153-.42.038-.266-.229-1.03-.687-2.021-.61-1.297.152-1.984 1.183-2.098 1.374-.725 1.221-.458 2.901.572 3.78.534.458 1.335.687 2.212.61.458-.038.916-.152 1.336-.381.152-.077.305 0 .381.114.076.115 0 .306-.114.382-.496.267-1.03.42-1.564.458h-.306z" transform="translate(96.86 87.05)"/>
                </g>
                <g fill="#000">
                    <path d="M39.404 20.388h-.077c-.152-.038-.267-.191-.229-.344l3.128-13.592c.038-.152.191-.267.344-.229.152.038.267.191.228.344l-3.127 13.592c0 .153-.153.229-.267.229zM63.397 27.795c-.153 0-.267-.115-.267-.268L62.329.305c0-.152.114-.305.267-.305.152 0 .305.115.305.267.267 9.087.534 18.136.8 27.222 0 .153-.114.306-.304.306z" transform="translate(66.344 177.535)"/>
                    <path d="M45.087 102.894c-.152 0-.267-.115-.267-.267L39.251 22.03l-18.157 79.146c0 .076-.076.152-.114.19-.077.039-.153.039-.23.039l-17.89-4.39c-.876-.23-1.754-.42-2.631-.65-.153-.038-.229-.19-.229-.344C5.417 64.867 10.795 33.713 16.212 2.558l.381-2.214c.038-.153.19-.268.343-.23.153.039.267.191.23.344l-.382 2.215C11.405 33.75 6.027 64.829.61 95.869c.801.19 1.602.382 2.365.572l17.623 4.353 18.539-80.75c.038-.152.152-.229.305-.229.152 0 .267.115.267.267l5.645 82.24 19.988-.154-.038-.649-1.144-37.874c0-.152.114-.305.267-.305.152 0 .305.114.305.267l1.144 37.874.038.955c0 .076-.038.152-.076.19-.038.039-.115.077-.19.077l-20.56.19z" transform="translate(66.344 177.535)"/>
                    <path d="M7.515 98.16h-.039c-.152-.039-.267-.191-.228-.344L26.015.306c.038-.153.19-.268.343-.23.153.039.267.191.229.344L7.82 97.93c-.038.153-.153.23-.305.23zM56.454 102.78c-.152 0-.267-.115-.267-.23L41.577 9.621c-.037-.152.077-.305.23-.343.152-.039.305.076.343.229l14.61 92.929c.038.152-.077.305-.23.343h-.076z" transform="translate(66.344 177.535)"/>
                </g>
                <g fill="#000">
                    <path d="M4.577 11.225c-.114 0-.228-.077-.267-.23-.42-1.794-.915-3.512-1.45-5.115l-.037-.115c-.305-.954-.61-1.833-.115-2.596.496-.726 1.564-1.07 2.365-.764.267.115.687.382 1.335 1.718.23.459.42.917.61 1.413.573-1.909 1.107-3.398 1.336-3.932.152-.382.457-.879.991-1.108.039 0 .077-.038.115-.038.229-.076.84-.19 1.45.077.533.267.953.763 1.144 1.45.229.764 0 1.413-.115 1.718-.076.153-.229.191-.381.153-.153-.076-.229-.229-.153-.382.115-.229.267-.763.115-1.336-.077-.305-.305-.84-.84-1.069-.419-.19-.839-.115-1.03-.076-.038 0-.076 0-.076.038-.267.114-.457.343-.648.802-.229.496-.84 2.176-1.564 4.772-.038.115-.153.191-.267.191-.115 0-.229-.076-.267-.19-.229-.765-.496-1.49-.877-2.215-.42-.84-.763-1.337-1.03-1.451-.572-.23-1.335.038-1.679.534-.343.497-.114 1.26.153 2.1l.038.115c.534 1.603 1.03 3.36 1.45 5.154.038.153-.039.305-.23.344-.037.038-.076.038-.076.038z" transform="translate(61.767 59.178)"/>
                    <path d="M9.574 11.874h-.038c-.152-.038-.267-.191-.229-.344.382-2.29 1.068-5.536 2.098-8.017.191-.497.763-1.871 1.793-2.024.038 0 1.183-.19 1.755.535.343.42.496.992.458 1.756 0 .152-.153.267-.306.267-.152 0-.267-.153-.267-.305.038-.611-.076-1.031-.305-1.375-.305-.382-.992-.382-1.22-.343-.725.114-1.183 1.221-1.336 1.68-.991 2.405-1.678 5.612-2.06 7.903-.076.19-.19.267-.343.267zM.763 15.234c-.115 0-.19-.039-.267-.153-.19-.344-.382-.916-.267-1.565.038-.191.114-.382.19-.535.115-.19.344-.725.992-.993.534-.229 1.03-.114 1.26-.038.152.038.228.191.19.344-.038.153-.19.229-.343.19-.191-.037-.496-.114-.878.039-.42.19-.61.573-.686.725-.077.115-.115.268-.153.42-.076.458.038.917.19 1.184.077.153 0 .305-.114.382H.763zM7.057 12.294c-.115 0-.267-.077-.267-.23-.305-1.297 0-5.383 0-5.535 0-.153.152-.268.305-.268s.267.153.267.306c0 .038-.267 4.161 0 5.383.038.153-.076.306-.229.344h-.076zM5.378 14.317c.039 1.947.077 3.895.153 5.804l2.212 2.061c-.8-2.596-1.602-5.23-2.365-7.865z" transform="translate(61.767 59.178)"/>
                </g>
                <path fill="#000" d="M271.907 273.098c-20.713.42-41.426.84-62.138 1.222v-.496c4.92-7.675 10.108-15.272 15.563-22.755.076-.039.19-.077.267-.115l24.26.916c2.174 2.978 4.081 5.46 5.645 7.33 3.128 3.857 5.074 5.842 5.99 6.759 1.64 1.641 2.631 2.634 4.157 3.741 2.403 1.795 4.654 2.825 6.256 3.398z"/>
                <path fill="#000" d="M205.802 280.505c-.038 0-.115 0-.153-.038-9.078-5.65-18.119-11.263-27.197-16.914-.076-.038-.115-.114-.115-.19 0-.077 0-.153.077-.23.953-1.069 2.899-3.321 5.34-6.147 3.738-4.314 8.85-10.232 13.961-16.035.114-.115.267-.115.42-.038.114.114.114.267.038.42-5.074 5.803-10.223 11.72-13.961 16.035-2.289 2.635-4.082 4.734-5.112 5.88l26.664 16.608c1.335-2.176 2.593-4.2 3.852-6.147 4.959-7.75 10.185-15.386 15.563-22.755 2.365-3.245 4.92-6.643 7.515-10.003.114-.115.267-.153.42-.038.114.114.152.267.038.42-2.632 3.398-5.15 6.758-7.515 10.003-5.378 7.368-10.604 15.004-15.563 22.717-1.259 1.985-2.556 4.008-3.89 6.223-.039.038-.039.038-.039.076-.038.038-.038.077-.076.115-.115 0-.191.038-.267.038zM276.675 274.167c-10.414 0-18.844-11.225-27.007-22.068-.076-.114-5.34-7.292-6.18-8.59-.037 0-.037-.038-.037-.076-.267-.382-.573-.726-.84-1.108-.305-.381-.572-.725-.877-1.107-.114-.114-.076-.305.038-.42.115-.114.305-.076.42.038.305.382.572.726.877 1.108.305.381.572.725.878 1.107 0 0 0 .038.038.038.229.305 5.264 7.292 6.217 8.59 8.087 10.767 16.44 21.877 26.549 21.877h.496c4.272-.152 8.735-4.772 11.749-8.666 3.09-4.01 5.264-7.942 5.683-8.782-2.708-2.672-5.188-5.192-7.667-7.788-1.488-1.566-3.013-3.131-4.463-4.696-1.83-1.948-3.586-3.818-5.302-5.651-1.45-1.565-2.86-3.093-4.272-4.582-6.523-6.91-12.397-12.828-19.797-19.013-1.603-1.336-3.51-2.902-5.417-4.238-5.035-3.474-9.193-4.734-13.198-3.932-1.602.343-3.128.992-4.577 1.947-.115.076-.306.038-.382-.077-.076-.114-.038-.305.076-.381 1.488-.993 3.128-1.68 4.807-2.024 4.12-.84 8.468.42 13.617 4.009 1.946 1.336 3.853 2.902 5.455 4.238 7.438 6.223 13.313 12.103 19.835 19.051 1.412 1.49 2.823 3.017 4.273 4.582 1.716 1.833 3.433 3.703 5.302 5.65l4.463 4.697c2.517 2.596 5.073 5.192 7.82 7.903.076.076.114.19.076.305-.039.191-9.308 17.677-18.043 17.983-.267.076-.458.076-.61.076z"/>
                <path fill="#000" d="M190.62 249.656l-23.116-.878-1.144-.038-1.106 17.562h.19c3.281.077 6.027.993 8.202 2.1 2.937 1.45 4.768 3.245 5.34 3.856 1.945-1.68 3.89-3.321 5.836-5.001-2.06-1.298-4.12-2.558-6.218-3.856 2.785-3.17 6.828-7.827 12.016-13.745z"/>
                <g fill="#000">
                    <path d="M1.182 24.13c-.038 0-.076 0-.114-.039-.153-.076-.229-.229-.153-.382l1.183-2.787C.153 19.013-.382 15.348.496 10.042v-.039c.152-1.069.42-1.833.61-2.29.19-.535.763-2.1 2.098-3.666.115-.115.267-.153.42-.038.114.114.152.267.038.42-1.259 1.489-1.793 2.978-1.984 3.474-.152.458-.42 1.184-.572 2.176v.039c-1.03 6.414.23 9.2 1.488 10.423l.076.076c.076.076.115.229.076.344l-1.258 2.978c-.077.152-.191.19-.306.19z" transform="translate(293.687 150.427)"/>
                    <path d="M19.72 11.454c-.075.343-.152.802-.152.802-.076.343-.152.725-.267 1.107-.038.19-.114.382-.152.573-.191.649-.458 1.221-.725 1.756-.534-.42-1.22-.687-1.984-.687-.152 0-.305 0-.457.038-.115-.84-.115-1.566-.038-2.138.114-1.451.534-2.177.076-2.94-.725-1.146-2.174-.42-3.586-1.566-1.487-1.26-.877-3.016-2.06-3.512-1.258-.535-2.365 1.222-4.31.993-1.297-.153-2.25-1.108-2.823-1.833.572-.725 1.755-2.062 3.777-2.978C7.667.764 9.459 0 11.749.267c3.242.344 6.065 2.558 7.209 5.307.305.687.458 1.336.534 1.756.038.344.42 3.055.229 4.124zM2.48 20.464c.457.458 1.144 1.031 2.136 1.49 2.06.954 3.967.648 4.73.496-.573.305-1.336.649-2.29.801-2.517.42-4.538-.725-5.187-1.145.19-.535.382-1.07.61-1.642z" transform="translate(293.687 150.427)"/>
                    <path d="M16.288 21.839c-.725 0-1.373-.191-1.907-.573-.306-.19-.534-.458-.763-.802-.077-.114-.038-.305.076-.382.153-.076.305-.038.381.077.153.267.382.458.61.649.954.687 2.785.649 3.815-.496 1.22-1.337.725-3.398-.114-4.2-.076-.038-.115-.115-.19-.153-.65-.534-1.527-.725-2.328-.61-.152.037-.305-.077-.343-.23-.038-.153.076-.305.229-.344.992-.152 1.983.077 2.784.726.077.076.153.114.23.19 1.03.993 1.601 3.399.152 5.002-.649.764-1.679 1.146-2.632 1.146z" transform="translate(293.687 150.427)"/>
                </g>
                <path fill="#000" d="M333.74 266.913c-1.03 0-2.099-.038-3.128-.153-1.336-.114-2.709-.343-4.006-.649-.114-.038-.19-.114-.229-.19-.42-1.604-.991-3.857-1.716-6.568l-1.144-4.467c-1.107-4.2-2.327-8.934-3.586-13.744l-.42-1.527c-.572-2.253-1.182-4.467-1.754-6.644-.801-3.13-1.602-6.108-2.289-8.743l-1.297-4.887c-.381-1.412-.687-2.634-.954-3.627l-.114-.42c-.725 1.718-1.488 3.436-2.212 5.193-2.06 4.81-4.12 9.545-6.065 13.973-.573 1.337-1.183 2.673-1.755 4.01-.381.916-.801 1.794-1.183 2.71v.038c-2.097 4.773-4.31 9.66-6.713 15.005 0 .038-.038.076-.038.114-.076.153-.229.191-.382.115-.152-.077-.19-.23-.114-.382 0-.038.038-.038.038-.076 2.403-5.345 4.616-10.27 6.714-15.005v-.038c.42-.916.8-1.833 1.22-2.71.572-1.337 1.183-2.673 1.755-4.01 1.945-4.467 3.967-9.163 6.065-13.973.84-1.986 1.716-3.971 2.556-5.956.038-.115.152-.191.267-.191.114 0 .228.076.267.229l.305 1.222c.267.992.572 2.214.953 3.627l1.297 4.887c.687 2.672 1.488 5.65 2.289 8.743.572 2.176 1.144 4.39 1.755 6.643l.42 1.527c1.258 4.773 2.517 9.545 3.585 13.745l1.144 4.467c.687 2.596 1.259 4.81 1.679 6.414 1.22.267 2.479.496 3.738.61 2.365.23 4.73.192 7.057-.114 3.051-.382 5.988-1.221 8.811-2.481l-.038-.115c-.267-.764-.534-1.603-.84-2.482-.915-2.672-1.907-5.612-2.936-8.743l-2.861-8.705-1.068-3.283c-.458-1.413-.916-2.902-1.412-4.39-1.182-3.666-2.25-6.988-3.356-10.118l-.458-1.375-.687-1.947c-.725-2.138-1.487-4.352-2.365-6.758-1.564-4.39-3.09-8.514-4.768-12.599-.343-.878-.725-1.833-1.144-2.787-1.412-3.36-3.433-7.827-6.409-12.103-1.678-2.443-3.356-4.276-4.5-5.383-.191-.191-.42-.382-.42-.382-1.259-1.184-2.556-2.253-3.891-3.169-4.349 3.283-9.345 5.002-13.389 4.62-.725-.077-1.373-.191-1.983-.382-2.747-.916-4.768-2.673-4.883-2.749-1.869-1.642-2.937-3.474-3.51-4.81-1.792.61-3.547 1.412-5.187 2.328-.572.306-1.488.84-2.594 1.604-1.869 1.298-3.814 2.978-5.76 4.925-.343.382-.724.725-1.068 1.107-3.242 3.475-6.484 7.713-9.65 12.638-.916 1.412-1.793 2.863-2.632 4.352-.077.153-.267.191-.382.115l-12.473-6.91s-.038 0-.038-.039c-1.564-.878-3.166-1.756-4.73-2.634l-9.803-5.422c-.84-.458-1.679-.954-2.556-1.413-.763-.42-1.488-.84-2.25-1.26l-6.142 17.64 2.746 1.412c2.213 1.107 4.463 2.253 6.676 3.36.152.076.19.229.114.382-.076.152-.229.19-.381.114-2.213-1.145-4.425-2.252-6.676-3.36l-2.975-1.527c-.114-.076-.19-.229-.152-.343l6.332-18.212c.038-.076.076-.153.152-.19.076-.039.153-.039.229 0 .84.457 1.678.954 2.556 1.412.839.458 1.678.954 2.555 1.412l9.804 5.422c1.602.878 3.204 1.756 4.768 2.634 0 0 .038 0 .038.038l12.206 6.758c.801-1.374 1.64-2.787 2.518-4.123 3.166-4.963 6.446-9.24 9.727-12.714.343-.382.724-.763 1.106-1.145 1.945-1.986 3.929-3.666 5.836-4.964 1.144-.801 2.06-1.336 2.632-1.641 1.755-.955 3.586-1.795 5.531-2.444.153-.038.305.038.343.153.534 1.298 1.564 3.169 3.472 4.849.038 0 2.021 1.756 4.653 2.634.572.191 1.22.306 1.87.382 3.966.382 8.887-1.375 13.16-4.62.114-.076.228-.076.343 0 1.41.955 2.822 2.1 4.12 3.36l.419.42c1.144 1.107 2.86 2.978 4.539 5.46 2.975 4.314 4.997 8.78 6.447 12.217.381.955.762 1.87 1.144 2.787 1.64 4.124 3.204 8.247 4.768 12.638.84 2.367 1.602 4.581 2.365 6.757l.687 1.947.457 1.375c1.068 3.169 2.175 6.49 3.357 10.156.496 1.489.954 2.978 1.411 4.39l1.068 3.284c1.03 3.13 1.984 6.032 2.861 8.705 1.03 3.13 2.022 6.07 2.937 8.743.306.878.573 1.718.84 2.482l.114.343c.038.153 0 .306-.153.344-2.937 1.336-6.026 2.214-9.192 2.634-1.297.115-2.67.191-4.006.191z"/>
                <path fill="#000" d="M264.201 224.496h-.114c-.153-.039-.229-.23-.153-.382l9.155-24.015c.038-.153.229-.23.382-.153.152.038.228.23.152.382l-9.155 24.015c-.038.076-.152.153-.267.153z"/>
                <circle cx="284.533" cy="181.925" r="1" fill="#000"/>
                <circle cx="274.768" cy="186.545" r="1" fill="#000"/>
                <circle cx="289.949" cy="192.921" r="1" fill="#000"/>
                <circle cx="281.939" cy="196.128" r="1" fill="#000"/>
                <circle cx="289.682" cy="205.826" r="1" fill="#000"/>
                <circle cx="292.543" cy="215.829" r="1" fill="#000"/>
                <circle cx="278.658" cy="214.416" r="1" fill="#000"/>
                <circle cx="276.827" cy="203.001" r="1" fill="#000"/>
                <circle cx="259.243" cy="206.818" r="1" fill="#000"/>
                <circle cx="262.332" cy="217.318" r="1" fill="#000"/>
                <circle cx="252.338" cy="210.293" r="1" fill="#000"/>
                <circle cx="243.794" cy="200.442" r="1" fill="#000"/>
                <circle cx="232.885" cy="205.52" r="1" fill="#000"/>
                <circle cx="233.647" cy="192.921" r="1" fill="#000"/>
                <circle cx="266.338" cy="202.695" r="1" fill="#000"/>
                <circle cx="268.779" cy="193.379" r="1" fill="#000"/>
                <circle cx="227.506" cy="197.503" r="1" fill="#000"/>
                <circle cx="275.302" cy="226.595" r="1" fill="#000"/>
                <circle cx="269.656" cy="221.098" r="1" fill="#000"/>
                <circle cx="297.693" cy="203.306" r="1" fill="#000"/>
                <circle cx="307.572" cy="205.826" r="1" fill="#000"/>
                <circle cx="301.126" cy="212.698" r="1" fill="#000"/>
                <circle cx="292.009" cy="226.595" r="1" fill="#000"/>
                <circle cx="280.985" cy="234.231" r="1" fill="#000"/>
                <circle cx="283.465" cy="221.098" r="1" fill="#000"/>
                <circle cx="287.737" cy="241.715" r="1" fill="#000"/>
                <circle cx="297.082" cy="242.898" r="1" fill="#000"/>
                <circle cx="299.256" cy="231.253" r="1" fill="#000"/>
                <circle cx="307.381" cy="221.098" r="1" fill="#000"/>
                <circle cx="292.543" cy="235.873" r="1" fill="#000"/>
                <circle cx="293.153" cy="248.969" r="1" fill="#000"/>
                <circle cx="315.468" cy="212.698" r="1" fill="#000"/>
                <circle cx="325.92" cy="218.12" r="1" fill="#000"/>
                <circle cx="320.198" cy="227.741" r="1" fill="#000"/>
                <circle cx="329.162" cy="228.657" r="1" fill="#000"/>
                <circle cx="325.386" cy="235.339" r="1" fill="#000"/>
                <circle cx="326.683" cy="244.96" r="1" fill="#000"/>
                <circle cx="332.595" cy="253.436" r="1" fill="#000"/>
                <circle cx="339.881" cy="259.85" r="1" fill="#000"/>
                <circle cx="326.683" cy="262.675" r="1" fill="#000"/>
                <circle cx="335.57" cy="248.969" r="1" fill="#000"/>
                <circle cx="332.595" cy="239.386" r="1" fill="#000"/>
                <circle cx="315.468" cy="201.97" r="1" fill="#000"/>
                <circle cx="323.478" cy="206.742" r="1" fill="#000"/>
                <circle cx="298.15" cy="187.08" r="1" fill="#000"/>
                <circle cx="301.126" cy="194.41" r="1" fill="#000"/>
                <circle cx="308.106" cy="188.53" r="1" fill="#000"/>
                <circle cx="313.79" cy="193.761" r="1" fill="#000"/>
                <circle cx="315.468" cy="186.545" r="1" fill="#000"/>
                <path fill="#000" d="M351.057 275.35c-.152 0-.267-.114-.305-.267 0-.152.114-.305.267-.305 3.814-.038 8.544-.764 9.193-2.673.038-.152.229-.649 0-1.03-.382-.688-1.755-.726-3.662-.726h-.648c-1.908-.038-3.853-.114-5.837-.267-.152 0-.267-.153-.267-.306 0-.152.153-.267.305-.267 1.946.153 3.891.23 5.799.267h.648c2.136 0 3.662.039 4.196 1.031.229.42.229.917 0 1.49-.877 2.748-7.63 3.016-9.689 3.054.038 0 0 0 0 0z"/>
                <path fill="#000" d="M347.93 276.343c-2.404 0-5.684-.572-8.927-1.221-8.391-1.718-9.917-3.551-10.451-4.2-1.145-1.375-1.87-3.093-2.175-5.04-.038-.153.077-.305.23-.343.152-.039.304.076.343.229.305 1.87.991 3.474 2.06 4.772 1.258 1.527 4.691 2.864 10.108 3.97 7.247 1.49 11.176 1.604 11.672.42v-.037c.343-.688-.152-1.566-.152-1.604-.534-.993-1.984-1.222-3.128-1.374l-.267-.039c-2.403-.381-4.845-1.145-7.362-2.29-.153-.077-.191-.23-.153-.382.076-.153.229-.191.382-.153 2.44 1.107 4.882 1.87 7.209 2.253l.267.038c1.22.19 2.86.42 3.547 1.68.039.038.649 1.145.153 2.1-.305.916-1.564 1.221-3.357 1.221zM360.631 271.953c-.114 0-.228-.077-.267-.23-.038-.152.039-.305.191-.343 1.335-.344 2.289-1.336 2.289-2.367 0-.726-.496-1.26-.572-1.336-.916-.917-2.518-.688-3.662-.535l-.19.038c-2.518.344-5.227.382-8.126.153-.152 0-.267-.153-.267-.305 0-.153.153-.268.305-.268 2.861.23 5.531.191 8.01-.152l.192-.039c1.22-.152 3.051-.42 4.157.688.115.114.725.763.725 1.718 0 1.298-1.106 2.481-2.708 2.901 0 .077-.038.077-.077.077z"/>
                <path fill="#000" d="M362.577 267.906c-.076 0-.153-.038-.19-.077-.115-.114-.115-.267-.039-.42.114-.152.496-.61.458-1.298-.038-.687-.496-1.107-.687-1.26-.305-.229-.648-.381-1.106-.458-.84-.114-1.526.077-1.64.115-1.107.305-4.044.649-8.888.992-.153 0-.305-.114-.305-.267 0-.153.114-.305.267-.305 4.768-.344 7.743-.688 8.773-.993.19-.076.954-.23 1.87-.115.533.077 1.03.268 1.41.573.23.191.802.764.878 1.642.076.916-.42 1.565-.572 1.718-.077.115-.153.153-.23.153z"/>
                <path fill="#000" d="M358 264.737c-.115 0-.23-.077-.268-.153-.228-.534-.572-.916-.953-1.145-.763-.458-1.64-.268-2.06-.153-1.602.344-4.081.573-7.82.802-.152 0-.305-.115-.305-.268 0-.152.115-.305.267-.305 3.7-.19 6.142-.458 7.705-.764.496-.114 1.526-.305 2.48.23.496.305.915.763 1.22 1.412.077.153 0 .306-.152.382-.038-.038-.076-.038-.115-.038zM220.64 190.63c-.114 0-.229-.076-.267-.19-.42-1.108-.648-2.291-.648-3.475-.039-1.107.152-2.176.457-3.245-.42-.687-2.403-4.162-2.784-6.796-.038-.153.076-.306.229-.344.152-.038.305.077.343.23.42 2.748 2.746 6.643 2.784 6.68.039.077.039.153.039.23-.344 1.03-.496 2.1-.458 3.169 0 1.145.229 2.214.61 3.283.038.153 0 .306-.152.382-.077.076-.115.076-.153.076zM211.066 190.783c-.115 0-.267-.076-.267-.229-.267-1.26-.649-4.467 1.373-7.483 1.259-1.833 2.86-2.825 4.043-3.36.153-.076.305 0 .382.153.076.152 0 .305-.153.382-1.068.496-2.632 1.412-3.776 3.13-1.907 2.826-1.526 5.842-1.297 7.025.038.153-.076.306-.229.344-.038.038-.076.038-.076.038z"/>
                <path fill="#000" d="M210.875 189.332c-.038 0-.076 0-.114-.038l-8.01-3.932c-.153-.077-.192-.23-.115-.382.076-.153.229-.191.381-.115l8.01 3.933c.153.076.191.229.115.382-.076.076-.153.152-.267.152zM211.409 184.789c-.038 0-.114 0-.153-.038l-7.896-4.505c-.152-.077-.19-.268-.114-.382.076-.153.267-.191.381-.115l7.896 4.505c.153.077.191.268.115.382-.038.077-.115.153-.229.153zM214.69 181.2c-.077 0-.115-.038-.191-.076l-3.853-2.94c-.114-.115-.152-.267-.038-.42.114-.153.267-.153.42-.038l3.852 2.94c.115.114.153.267.038.42-.038.076-.152.114-.229.114zM226.247 184.598c-2.48 4.81-4.959 9.583-7.438 14.394l2.327.992c1.716-5.116 3.433-10.232 5.111-15.386z"/>
                <g fill="#000">
                    <path d="M35.704 58.911c-.039 0-.077 0-.153-.038-5.836-3.245-11.71-6.49-17.547-9.736-5.836-3.245-11.71-6.49-17.546-9.736-.077-.038-.115-.114-.153-.19 0-.077 0-.153.076-.23.649-.763 1.45-1.412 2.327-1.947.458-.267.954-.496 1.45-.687.152-.038.305.038.381.153.038.152-.038.305-.152.381-.458.191-.916.382-1.374.65-.724.42-1.373.954-1.945 1.565 5.76 3.207 11.482 6.376 17.242 9.583 5.798 3.207 11.557 6.414 17.355 9.621l10.147-13.82c-4.501-2.712-8.964-5.46-13.465-8.171-.153-.077-.19-.268-.115-.382.077-.153.267-.191.382-.115 4.577 2.787 9.155 5.575 13.732 8.324.076.038.114.114.114.19 0 .077 0 .153-.038.23l-10.49 14.24c-.038.077-.114.115-.228.115z" transform="translate(152.17 231.368)"/>
                    <path d="M15.334 17.41l-1.144-.038-1.106 17.562c-4.082-.076-7.362 1.146-9.613 2.367L3.128.267C4.654.878 9.88 3.283 13.046 9.24c1.602 2.864 2.174 5.727 2.288 8.17z" transform="translate(152.17 231.368)"/>
                    <path d="M38.679 54.902c-.038 0-.076 0-.153-.038L4.73 36.844c-.153-.077-.19-.23-.114-.383.076-.152.228-.19.381-.114l33.796 18.02c.153.077.191.23.115.382-.038.077-.153.153-.23.153zM46.04 44.555c-.877 1.222-1.754 2.406-2.67 3.628-3.89-3.857-7.78-7.713-11.634-11.569.267-.229.535-.42.802-.649 4.5 2.864 9.002 5.727 13.503 8.59z" transform="translate(152.17 231.368)"/>
                </g>
            </g>
        </g>
    </g>
</svg>
